{
	"accessors": [
		{
			"bufferView": 0,
			"byteOffset": 0,
			"componentType": 5126,
			"count": 576,
			"max": [
				1.2157039642333984,
				0.864205002784729,
				0.08559799939393997
			],
			"min": [
				-1.2157039642333984,
				-0.864205002784729,
				-0.47668901085853577
			],
			"type": "VEC3"
		},
		{
			"bufferView": 1,
			"byteOffset": 0,
			"componentType": 5126,
			"count": 576,
			"type": "VEC3"
		},
		{
			"bufferView": 2,
			"byteOffset": 0,
			"componentType": 5126,
			"count": 576,
			"type": "VEC4"
		},
		{
			"bufferView": 3,
			"byteOffset": 0,
			"componentType": 5126,
			"count": 576,
			"type": "VEC2"
		},
		{
			"bufferView": 4,
			"byteOffset": 0,
			"componentType": 5123,
			"count": 1140,
			"type": "SCALAR"
		},
		{
			"bufferView": 5,
			"byteOffset": 0,
			"componentType": 5126,
			"count": 576,
			"max": [
				1.07498300075531,
				0.8700720071792603,
				0.08553899824619293
			],
			"min": [
				-1.07498300075531,
				-0.8700720071792603,
				-0.47663000226020813
			],
			"type": "VEC3"
		},
		{
			"bufferView": 6,
			"byteOffset": 0,
			"componentType": 5126,
			"count": 576,
			"type": "VEC3"
		},
		{
			"bufferView": 7,
			"byteOffset": 0,
			"componentType": 5126,
			"count": 576,
			"type": "VEC4"
		},
		{
			"bufferView": 8,
			"byteOffset": 0,
			"componentType": 5126,
			"count": 576,
			"type": "VEC2"
		},
		{
			"bufferView": 9,
			"byteOffset": 0,
			"componentType": 5123,
			"count": 1140,
			"type": "SCALAR"
		},
		{
			"bufferView": 10,
			"byteOffset": 0,
			"componentType": 5126,
			"count": 4,
			"max": [
				4.400000095367432,
				4.400000095367432,
				0.0
			],
			"min": [
				-4.400000095367432,
				-4.400000095367432,
				0.0
			],
			"type": "VEC3"
		},
		{
			"bufferView": 11,
			"byteOffset": 0,
			"componentType": 5126,
			"count": 4,
			"type": "VEC3"
		},
		{
			"bufferView": 12,
			"byteOffset": 0,
			"componentType": 5126,
			"count": 4,
			"type": "VEC4"
		},
		{
			"bufferView": 13,
			"byteOffset": 0,
			"componentType": 5126,
			"count": 4,
			"type": "VEC2"
		},
		{
			"bufferView": 14,
			"byteOffset": 0,
			"componentType": 5123,
			"count": 6,
			"type": "SCALAR"
		},
		{
			"bufferView": 15,
			"byteOffset": 0,
			"componentType": 5126,
			"count": 514,
			"max": [
				0.2816999852657318,
				1.2047170400619507,
				0.08615399897098541
			],
			"min": [
				-0.2816999852657318,
				-1.2047170400619507,
				-0.4772450029850006
			],
			"type": "VEC3"
		},
		{
			"bufferView": 16,
			"byteOffset": 0,
			"componentType": 5126,
			"count": 514,
			"type": "VEC3"
		},
		{
			"bufferView": 17,
			"byteOffset": 0,
			"componentType": 5126,
			"count": 514,
			"type": "VEC4"
		},
		{
			"bufferView": 18,
			"byteOffset": 0,
			"componentType": 5126,
			"count": 514,
			"type": "VEC2"
		},
		{
			"bufferView": 19,
			"byteOffset": 0,
			"componentType": 5123,
			"count": 1140,
			"type": "SCALAR"
		}
	],
	"asset": {
		"copyright": "Sascha Willems",
		"generator": "Gestaltor 2020.2.0 Alpha 'Schokoei' (CI-cce52488*)",
		"version": "2.0"
	},
	"bufferViews": [
		{
			"buffer": 0,
			"byteLength": 6912,
			"byteOffset": 0
		},
		{
			"buffer": 0,
			"byteLength": 6912,
			"byteOffset": 6912
		},
		{
			"buffer": 0,
			"byteLength": 9216,
			"byteOffset": 13824
		},
		{
			"buffer": 0,
			"byteLength": 4608,
			"byteOffset": 23040
		},
		{
			"buffer": 0,
			"byteLength": 2280,
			"byteOffset": 27648
		},
		{
			"buffer": 0,
			"byteLength": 6912,
			"byteOffset": 29928
		},
		{
			"buffer": 0,
			"byteLength": 6912,
			"byteOffset": 36840
		},
		{
			"buffer": 0,
			"byteLength": 9216,
			"byteOffset": 43752
		},
		{
			"buffer": 0,
			"byteLength": 4608,
			"byteOffset": 52968
		},
		{
			"buffer": 0,
			"byteLength": 2280,
			"byteOffset": 57576
		},
		{
			"buffer": 0,
			"byteLength": 48,
			"byteOffset": 59856
		},
		{
			"buffer": 0,
			"byteLength": 48,
			"byteOffset": 59904
		},
		{
			"buffer": 0,
			"byteLength": 64,
			"byteOffset": 59952
		},
		{
			"buffer": 0,
			"byteLength": 32,
			"byteOffset": 60016
		},
		{
			"buffer": 0,
			"byteLength": 12,
			"byteOffset": 60048
		},
		{
			"buffer": 0,
			"byteLength": 6168,
			"byteOffset": 60060
		},
		{
			"buffer": 0,
			"byteLength": 6168,
			"byteOffset": 66228
		},
		{
			"buffer": 0,
			"byteLength": 8224,
			"byteOffset": 72396
		},
		{
			"buffer": 0,
			"byteLength": 4112,
			"byteOffset": 80620
		},
		{
			"buffer": 0,
			"byteLength": 2280,
			"byteOffset": 84732
		}
	],
	"buffers": [
		{
			"byteLength": 87012,
			"uri": "data:application/octet-stream;base64,"
		}
	],
	"images": [
		{
			"mimeType": "image/png",
			"uri": "data:image/png;base64,"
		},
		{
			"mimeType": "image/png",
			"uri": "data:image/png;base64,"
		}
	],
	"materials": [
		{
			"doubleSided": true,
			"emissiveFactor": [
				0.0,
				0.0,
				0.0
			],
			"emissiveTexture": {
				"texCoord": 0
			},
			"name": "Material.001",
			"normalTexture": {
				"index": 1,
				"scale": 1.0,
				"texCoord": 0
			},
			"pbrMetallicRoughness": {
				"baseColorFactor": [
					1.0,
					1.0,
					1.0,
					1.0
				],
				"baseColorTexture": {
					"index": 0,
					"texCoord": 0
				},
				"metallicFactor": 0.0,
				"roughnessFactor": 0.5
			}
		}
	],
	"meshes": [
		{
			"name": "Cylinder.002_Cylinder.008",
			"primitives": [
				{
					"attributes": {
						"NORMAL": 1,
						"POSITION": 0,
						"TANGENT": 2,
						"TEXCOORD_0": 3
					},
					"indices": 4,
					"material": 0,
					"mode": 4
				}
			]
		},
		{
			"name": "Cylinder.001_Cylinder.007",
			"primitives": [
				{
					"attributes": {
						"NORMAL": 6,
						"POSITION": 5,
						"TANGENT": 7,
						"TEXCOORD_0": 8
					},
					"indices": 9,
					"material": 0,
					"mode": 4
				}
			]
		},
		{
			"name": "Plane",
			"primitives": [
				{
					"attributes": {
						"NORMAL": 11,
						"POSITION": 10,
						"TANGENT": 12,
						"TEXCOORD_0": 13
					},
					"indices": 14,
					"material": 0,
					"mode": 4
				}
			]
		},
		{
			"name": "Cylinder",
			"primitives": [
				{
					"attributes": {
						"NORMAL": 16,
						"POSITION": 15,
						"TANGENT": 17,
						"TEXCOORD_0": 18
					},
					"indices": 19,
					"material": 0,
					"mode": 4
				}
			]
		}
	],
	"nodes": [
		{
			"mesh": 0,
			"name": "Cylinder.002_Cylinder.008",
			"rotation": [
				0.7071068286895752,
				0.0,
				0.0,
				0.7071067094802856
			],
			"scale": [
				10.0,
				10.0,
				10.0
			]
		},
		{
			"mesh": 1,
			"name": "Cylinder.001_Cylinder.007",
			"rotation": [
				0.7071068286895752,
				0.0,
				0.0,
				0.7071067094802856
			],
			"scale": [
				10.0,
				10.0,
				10.0
			]
		},
		{
			"mesh": 2,
			"name": "Plane",
			"rotation": [
				0.7071068286895752,
				0.0,
				0.0,
				0.7071067094802856
			],
			"scale": [
				10.0,
				10.0,
				10.0
			]
		},
		{
			"mesh": 3,
			"name": "Cylinder",
			"rotation": [
				0.7071068286895752,
				0.0,
				0.0,
				0.7071067094802856
			],
			"scale": [
				10.0,
				10.0,
				10.0
			]
		}
	],
	"samplers": [
		{
			"magFilter": 9729,
			"minFilter": 9987
		}
	],
	"scene": 0,
	"scenes": [
		{
			"name": "Scene",
			"nodes": [
				0,
				1,
				2,
				3
			]
		}
	],
	"textures": [
		{
			"sampler": 0,
			"source": 0
		},
		{
			"sampler": 0,
			"source": 1
		}
	]
}